<svg width="230" height="225" viewBox="0 0 230 225" fill="none" xmlns="http://www.w3.org/2000/svg">
<g clip-path="url(#clip0_1_13)">
<path d="M120.998 126.982C116.912 126.982 113.088 124.621 110.574 122.365C108.793 123.572 106.069 125.356 103.974 126.038C100.307 127.245 95.4885 126.982 92.0314 125.146C87.9982 125.093 84.4364 123.257 81.8697 120.843C78.8841 118.01 75.7937 114.809 74.1699 111.188C70.4509 110.401 67.0986 108.46 64.532 105.941C62.5416 103.947 60.3416 100.904 59.8178 96.8634C56.675 95.3417 54.1084 93.0854 52.537 91.7211C48.9228 88.5728 46.7228 84.7948 46.1991 80.8594C43.9467 79.0754 41.8515 76.8715 39.9658 74.9301C38.3421 73.251 36.7707 71.6243 35.7755 70.9947C33.4184 69.473 28.2851 67.8988 22.8376 66.1672C13.5664 63.2288 3.98087 60.2379 0.838082 55.7253C-0.261895 54.0987 -0.419034 51.58 0.471423 47.5397C3.19518 34.7365 16.7092 5.61453 24.2519 1.04947C29.0185 -1.83649 37.4516 1.57419 47.1943 5.56206C53.218 8.02825 59.5035 10.5994 63.6415 10.9142C67.3605 11.1766 70.6604 10.2321 74.8508 8.97274C81.1888 7.08375 89.0982 4.77498 102.298 5.61454C110.522 6.13926 116.021 8.13319 119.74 10.5469C122.307 9.44499 124.769 8.65791 127.126 8.39555C135.088 7.34611 143.049 9.13016 150.697 10.8617C157.925 12.4884 165.363 14.1675 173.063 13.6428C180.292 13.118 185.53 10.6518 190.087 8.44802C195.272 5.98184 200.143 3.6206 206.272 5.14229C211.929 6.55903 223.191 33.6346 223.662 34.789C231.833 54.466 229.895 57.6668 229.162 58.8736C226.491 63.3862 219.629 64.2783 211.719 65.3277C202.972 66.4821 193.072 67.8463 189.353 74.2479C188.672 75.4548 187.153 75.8221 186.001 75.14C184.796 74.4578 184.43 72.9361 185.11 71.7818C190.034 63.2813 201.243 61.7596 211.091 60.4478C217.167 59.6082 223.505 58.7687 224.972 56.355C226.857 50.7929 209.362 13.223 204.858 9.91724C200.563 8.92027 197.053 10.5994 192.234 12.9081C187.52 15.1644 181.601 17.9979 173.43 18.5751C164.997 19.1523 157.192 17.4207 149.649 15.6892C142.054 13.9576 134.878 12.3834 127.755 13.2754C126.497 13.4329 125.24 13.7477 123.931 14.1675C124.507 14.8496 124.978 15.5842 125.397 16.2139C128.593 21.5136 128.54 28.3349 125.293 35.4711C118.745 49.9534 109.055 59.6607 99.417 61.4972C94.9647 62.3368 90.9315 61.2873 88.1029 58.5063C85.9554 56.4075 83.8602 52.3671 86.2697 45.1784C89.7267 34.789 102.141 20.674 114.502 13.2754C111.202 11.8062 107.012 10.8617 102.036 10.5469C89.6743 9.75982 82.2364 11.9636 76.2651 13.6952C71.7604 15.007 67.8843 16.1614 63.2749 15.7941C58.3512 15.4268 51.7513 12.6983 45.3086 10.0747C38.7087 7.45106 29.5423 3.67307 26.9233 5.2997C19.4853 9.8123 3.09042 48.3792 5.02847 52.9968C7.17605 56.0401 17.1282 59.1885 24.409 61.4448C30.4327 63.3338 35.6183 64.9604 38.4992 66.7969C39.9658 67.7414 41.642 69.473 43.5801 71.4669C44.5753 72.4639 45.6229 73.6183 46.7752 74.6677C47.9276 71.0996 50.4942 67.9513 54.2655 65.6425C57.8798 63.4387 61.9654 63.9634 64.4796 66.9543C67.0462 69.9977 67.7272 75.6647 63.1701 80.9119C61.0226 83.4305 58.5083 84.6899 55.7322 84.7948C54.737 84.8473 53.7417 84.6899 52.7465 84.4275C53.5322 85.6344 54.5275 86.7887 55.7846 87.8907C57.2512 89.15 58.7178 90.3568 60.2369 91.3538C61.0226 88.4154 62.8035 85.1096 66.051 81.4891C70.8176 76.1894 74.7985 76.0844 76.7889 76.5567C79.0936 77.0289 80.8745 78.6556 81.6078 80.9644C82.7078 84.4275 81.3459 88.7302 77.9413 92.5082C73.5413 97.3881 69.1414 98.6999 65.2653 98.3326C65.7891 99.6969 66.732 101.009 67.9891 102.268C69.1938 103.475 70.9223 104.734 73.0175 105.521C73.2271 101.428 75.6889 97.3356 80.5602 92.9804C86.4268 87.7332 91.7172 88.3104 94.2838 91.1439C96.9551 94.0824 97.0599 99.9067 90.8791 105.679C87.3172 108.984 83.5459 110.664 79.9317 111.188C81.1888 113.025 83.0221 114.914 85.2221 117.013C85.7458 117.485 86.4792 118.115 87.3696 118.639C87.1077 116.173 88.0506 112.71 92.3981 108.512C96.2742 104.734 99.6265 105.049 101.303 105.521C103.765 106.256 105.703 108.407 106.331 111.083C107.064 114.284 105.964 117.695 103.293 120.108C102.822 120.528 102.403 120.896 101.931 121.263C102.088 121.21 102.246 121.158 102.403 121.105C104.184 120.528 107.588 118.272 109.317 116.96L111.15 115.543L112.669 117.275C112.931 117.59 119.112 124.516 124.35 120.633C125.397 118.377 118.064 106.466 108.898 95.7615L112.617 92.5082C120.893 101.638 136.554 116.173 143.364 116.173C144.202 116.173 144.621 115.963 144.883 115.701C145.459 112.29 134.773 96.4961 121.259 80.9644L124.926 77.6586C133.988 87.5234 150.645 103.055 157.035 103.055C157.087 103.055 157.087 103.055 157.14 103.055C157.768 103.055 157.978 102.793 158.082 102.688C160.649 99.5394 148.026 81.4366 131.054 63.9109L134.564 60.3953C146.14 71.7818 167.354 89.6222 175.42 89.6222C175.525 89.6222 175.577 89.6222 175.682 89.6222C176.573 89.5698 176.887 89.3074 177.096 89.045C177.568 88.4678 177.515 87.3659 177.358 86.5789C175.158 75.6647 149.387 50.7405 134.826 43.3419C133.621 42.7123 133.15 41.243 133.726 40.0362C134.354 38.8293 135.821 38.3571 137.026 38.9343C151.64 46.3853 179.453 72.254 182.125 85.6344C182.701 88.3629 182.23 90.6192 180.815 92.2983C179.611 93.715 177.934 94.5021 175.839 94.6071C170.706 94.817 162.849 90.3044 155.097 84.6899C161.225 93.4527 165.206 101.796 161.854 105.889C160.754 107.253 159.13 107.987 157.244 108.04C153.525 108.145 148.497 105.364 143.364 101.533C151.064 113.182 150.54 116.855 148.602 118.954C147.292 120.371 145.511 121.105 143.311 121.158C138.807 121.158 132.678 117.432 126.864 112.867C128.435 116.016 129.431 118.954 129.169 121.158C128.959 123.047 128.016 124.149 127.231 124.674C125.24 126.353 123.093 126.982 120.998 126.982ZM99.417 110.349C98.4218 110.349 97.1647 111.031 95.9076 112.238C94.4933 113.602 91.3505 117.065 92.66 119.321C92.8171 119.636 93.079 119.899 93.3933 120.161C95.3838 119.899 97.6361 118.902 100.046 116.645C101.355 115.438 101.931 113.864 101.565 112.395C101.355 111.398 100.726 110.664 99.9408 110.454C99.7837 110.349 99.6265 110.349 99.417 110.349ZM89.2553 94.1348C87.9458 94.1348 86.0078 94.9219 83.8602 96.8634C79.9317 100.327 78.046 103.37 77.9936 106.098C77.9936 106.256 77.9936 106.413 77.9936 106.571C80.9793 106.518 84.2268 105.364 87.5268 102.268C91.2457 98.8048 91.6124 95.6565 90.6696 94.6595C90.4077 94.2922 89.8839 94.1348 89.2553 94.1348ZM64.8987 93.4002C67.8843 93.9249 70.9747 92.9804 74.327 89.2549C76.8937 86.369 77.3651 83.8503 76.946 82.5385C76.7365 81.9089 76.3699 81.5415 75.7937 81.4366C74.5889 81.1742 72.389 81.9613 69.77 84.8473C67.0462 87.9431 65.4225 90.7766 64.8987 93.4002ZM51.1228 78.2883C52.6942 79.3377 54.3179 79.9674 55.6798 79.9674C57.0417 79.9149 58.2988 79.2328 59.5035 77.816C62.1749 74.7202 62.0178 71.7817 60.7607 70.3125C59.8178 69.2106 58.4036 69.1057 56.8845 70.0502C53.4275 72.1491 51.3847 75.0875 51.1228 78.2883C51.1228 78.2358 51.1228 78.2358 51.1228 78.2883ZM119.164 16.3713C107.274 22.6155 94.3362 36.8354 91.0362 46.8051C89.7791 50.6355 89.9886 53.4165 91.6124 55.0432C93.7076 57.0896 96.5361 57.0896 98.5789 56.7223C104.812 55.5679 113.926 48.8515 120.893 33.5296C123.407 27.9151 123.564 22.7204 121.259 18.89C120.683 17.9979 120.002 17.1584 119.164 16.3713Z" fill="#3AB0FF"/>
<path d="M26.4518 223.898C24.2519 223.898 22.4709 224.213 22.4709 221.012V148.653C22.4709 146.449 24.2519 144.56 26.4518 144.56H42.6372C44.0515 144.56 45.3086 145.767 45.3086 147.341V151.434C45.3086 153.008 44.1038 154.215 42.6372 154.215H34.3088C32.7374 154.215 31.4279 155.422 31.4279 157.101V185.279C31.4279 186.853 32.0041 188.165 34.3088 188.165H39.8611C41.1706 188.165 42.3229 189.162 42.3229 190.473V195.248C42.3229 196.56 41.2229 197.715 39.8611 197.715H34.3088C32.7374 197.715 31.5327 199.026 31.5327 200.601L31.4279 211.462V221.904C31.4279 223.793 29.8565 223.898 28.128 223.898H26.4518Z" fill="#444444"/>
<path d="M66.7843 224.003C65.3701 224.003 64.2177 223.426 64.2177 222.009V146.344C64.2177 144.928 65.3177 144.56 66.7843 144.56H70.87C72.2842 144.56 73.4366 145.243 73.4366 146.659V221.957C73.4366 223.373 72.3366 223.951 70.87 223.951H66.7843V224.003Z" fill="#444444"/>
<path d="M114.083 215.03C116.179 215.03 116.65 214.715 116.65 217.601V221.379C116.65 223.373 116.755 223.951 114.083 223.951H96.9027C94.8075 223.951 94.3361 223.268 94.3361 221.379V147.236C94.3361 145.347 94.1266 144.665 96.9027 144.665H100.988C103.45 144.665 103.555 145.085 103.555 147.236V212.354C103.555 213.771 104.76 215.03 106.226 215.03H114.083Z" fill="#444444"/>
<path d="M144.83 157.101V185.384C144.83 186.958 146.035 188.27 147.711 188.27H153.263C154.573 188.27 155.568 189.371 155.568 190.736V195.511C155.568 196.823 154.573 197.819 153.263 197.819H150.959L147.764 197.924C146.087 197.924 144.883 199.131 144.883 200.81V211.672C144.883 214.453 144.883 214.558 147.659 214.558H156.197C157.506 214.558 158.501 215.66 158.501 217.024V221.484C158.501 222.796 158.082 223.951 156.197 223.951H139.802C137.602 223.951 135.821 223.163 135.821 219.963V148.653C135.821 146.449 137.602 144.56 139.802 144.56H155.987C157.559 144.56 158.763 145.767 158.763 147.341V151.434C158.763 153.008 157.559 154.215 155.987 154.215H147.659C146.087 154.215 144.83 155.58 144.83 157.101Z" fill="#444444"/>
<path d="M207.529 158.203V210.36C207.529 218.441 200.982 225 193.02 225C184.953 225 178.406 218.441 178.406 210.36V158.203C178.406 150.122 184.953 143.563 193.02 143.563C200.982 143.563 207.529 150.122 207.529 158.203ZM198.415 158.57C198.415 155.475 195.953 153.008 192.967 153.008C189.877 153.008 187.415 155.475 187.415 158.57V210.045C187.415 213.036 189.877 215.503 192.967 215.503C195.953 215.503 198.415 213.036 198.415 210.045V158.57Z" fill="#444444"/>
</g>
<defs>
<clipPath id="clip0_1_13">
<rect width="230" height="225" fill="white"/>
</clipPath>
</defs>
</svg>
